<svg xmlns="http://www.w3.org/2000/svg" width="180" height="180" fill="none" viewBox="0 0 180 180"><rect width="180" height="180" fill="#fff" rx="37"/><g shape-rendering="crispEdges" transform="translate(-19.717 -19.799) scale(1.22)"><rect width="23.506" height="75.629" x="49.358" y="55.863" fill="#000" fill-opacity=".4"/><rect width="23.506" height="66.226" x="61.214" y="154.998" fill="#000" fill-opacity=".4" transform="rotate(-90 61.2139 154.998)"/><rect width="23.506" height="66.226" x="61.214" y="55.863" fill="#000" fill-opacity=".4" transform="rotate(-90 61.2139 55.8633)"/><rect width="23.506" height="25.142" x="112.723" y="131.492" fill="#000" fill-opacity=".4" transform="rotate(-90 112.723 131.492)"/><rect width="23.506" height="44.355" x="93.509" y="107.986" fill="#000" fill-opacity=".4" transform="rotate(-90 93.5093 107.986)"/><rect width="23.506" height="75.629" x="42" y="48.506" fill="#000"/><rect width="23.506" height="66.226" x="53.855" y="147.643" fill="#000" transform="rotate(-90 53.8555 147.643)"/><rect width="23.506" height="66.226" x="53.855" y="48.506" fill="#000" transform="rotate(-90 53.8555 48.5059)"/><rect width="23.506" height="25.142" x="105.365" y="124.135" fill="#000" transform="rotate(-90 105.365 124.135)"/><rect width="23.506" height="44.355" x="86.151" y="100.629" fill="#000" transform="rotate(-90 86.1509 100.629)"/></g></svg>