<svg xmlns="http://www.w3.org/2000/svg" width="469" height="636" fill="none" viewBox="0 0 469 636"><rect width="115" height="370" x="36" y="151" fill="#000" fill-opacity=".4"/><rect width="115" height="324" x="94" y="636" fill="#000" fill-opacity=".4" transform="rotate(-90 94 636)"/><rect width="115" height="324" x="94" y="151" fill="#000" fill-opacity=".4" transform="rotate(-90 94 151)"/><rect width="115" height="123" x="346" y="521" fill="#000" fill-opacity=".4" transform="rotate(-90 346 521)"/><rect width="115" height="217" x="252" y="406" fill="#000" fill-opacity=".4" transform="rotate(-90 252 406)"/><rect width="115" height="370" y="115" fill="#000"/><rect width="115" height="324" x="58" y="600" fill="#000" transform="rotate(-90 58 600)"/><rect width="115" height="324" x="58" y="115" fill="#000" transform="rotate(-90 58 115)"/><rect width="115" height="123" x="310" y="485" fill="#000" transform="rotate(-90 310 485)"/><rect width="115" height="217" x="216" y="370" fill="#000" transform="rotate(-90 216 370)"/></svg>