<svg xmlns="http://www.w3.org/2000/svg" width="466" height="637" fill="none" viewBox="0 0 466 637"><rect width="115" height="370" x="33" y="152" fill="#fff" fill-opacity=".4"/><rect width="115" height="324" x="91" y="637" fill="#fff" fill-opacity=".4" transform="rotate(-90 91 637)"/><rect width="115" height="324" x="91" y="152" fill="#fff" fill-opacity=".4" transform="rotate(-90 91 152)"/><rect width="115" height="123" x="343" y="522" fill="#fff" fill-opacity=".4" transform="rotate(-90 343 522)"/><rect width="115" height="217" x="249" y="407" fill="#fff" fill-opacity=".4" transform="rotate(-90 249 407)"/><rect width="115" height="370" y="115" fill="#fff"/><rect width="115" height="324" x="58" y="600" fill="#fff" transform="rotate(-90 58 600)"/><rect width="115" height="324" x="58" y="115" fill="#fff" transform="rotate(-90 58 115)"/><rect width="115" height="123" x="310" y="485" fill="#fff" transform="rotate(-90 310 485)"/><rect width="115" height="217" x="216" y="370" fill="#fff" transform="rotate(-90 216 370)"/></svg>