<svg xmlns="http://www.w3.org/2000/svg" width="1471" height="636" fill="none" viewBox="0 0 1471 636"><rect width="115" height="370" x="36" y="151" fill="#000" fill-opacity=".4"/><rect width="115" height="324" x="94" y="636" fill="#000" fill-opacity=".4" transform="rotate(-90 94 636)"/><rect width="115" height="324" x="94" y="151" fill="#000" fill-opacity=".4" transform="rotate(-90 94 151)"/><rect width="115" height="252" x="698" y="151" fill="#000" fill-opacity=".4" transform="rotate(-90 698 151)"/><rect width="115" height="331" x="583" y="396" fill="#000" fill-opacity=".4" transform="rotate(-90 583 396)"/><rect width="115" height="252" x="583" y="636" fill="#000" fill-opacity=".4" transform="rotate(-90 583 636)"/><rect width="115" height="247" x="1166" y="636" fill="#000" fill-opacity=".4" transform="rotate(-90 1166 636)"/><rect width="115" height="247" x="1166" y="151" fill="#000" fill-opacity=".4" transform="rotate(-90 1166 151)"/><rect width="115" height="324" x="698" y="360" fill="#000" fill-opacity=".4" transform="rotate(180 698 360)"/><rect width="115" height="600" x="1166" y="636" fill="#000" fill-opacity=".4" transform="rotate(180 1166 636)"/><rect width="115" height="369" x="1471" y="521" fill="#000" fill-opacity=".4" transform="rotate(180 1471 521)"/><rect width="115" height="355" x="950" y="636" fill="#000" fill-opacity=".4" transform="rotate(180 950 636)"/><rect width="115" height="123" x="346" y="521" fill="#000" fill-opacity=".4" transform="rotate(-90 346 521)"/><rect width="115" height="217" x="252" y="406" fill="#000" fill-opacity=".4" transform="rotate(-90 252 406)"/><rect width="115" height="370" y="115" fill="#000"/><rect width="115" height="324" x="58" y="600" fill="#000" transform="rotate(-90 58 600)"/><rect width="115" height="324" x="58" y="115" fill="#000" transform="rotate(-90 58 115)"/><rect width="115" height="290" x="624" y="115" fill="#000" transform="rotate(-90 624 115)"/><rect width="115" height="367" x="547" y="360" fill="#000" transform="rotate(-90 547 360)"/><rect width="115" height="290" x="547" y="600" fill="#000" transform="rotate(-90 547 600)"/><rect width="115" height="324" x="1053" y="600" fill="#000" transform="rotate(-90 1053 600)"/><rect width="115" height="324" x="1053" y="116" fill="#000" transform="rotate(-90 1053 116)"/><rect width="115" height="331" x="662" y="331" fill="#000" transform="rotate(180 662 331)"/><rect width="115" height="600" x="1130" y="600" fill="#000" transform="rotate(180 1130 600)"/><rect width="115" height="369" x="1435" y="485" fill="#000" transform="rotate(180 1435 485)"/><rect width="115" height="355" x="914" y="600" fill="#000" transform="rotate(180 914 600)"/><rect width="115" height="123" x="310" y="485" fill="#000" transform="rotate(-90 310 485)"/><rect width="115" height="217" x="216" y="370" fill="#000" transform="rotate(-90 216 370)"/></svg>